<svg xmlns="http://www.w3.org/2000/svg" viewBox="227 316 1334 1107" role="img" aria-label="HORIX">
<g>
<path fill="#F3EFE8" d="M755.48,1421.52l-168.19.57c-31.35.11-58.09-27.32-58.05-58.36l.2-149.38c.04-30.63,27.94-59.86,59.13-59.81l163.9.25c30.66.05,56.66,29.4,57.22,59.73.95,51.26,1.73,99.61-.65,150.39-1.29,27.66-25.24,56.51-53.57,56.6ZM716.18,1227.71l-96.8.05.07,122.02,96.8-.05-.07-122.02Z"/>
<path fill="#F3EFE8" d="M1110.25,1422.02l-97.93.25-64.19-80.3-26.13-.93.04,81h-86.44s-.02-267.6-.02-267.6l199.81-.75c38.01-.14,69.42,21.3,73.76,60.92l-1.03,74.75c-.44,31.94-28.47,52.59-60.07,54.29l62.2,78.37ZM1018.18,1278.85l.63-52.72-95.29-.79v53.83s94.66-.31,94.66-.31Z"/>
<polygon fill="#F3EFE8" points="504.46 1421.71 417.15 1421.58 417.22 1324.12 315.25 1324.24 315.16 1421.32 227.41 1421.29 227.43 1155.5 315.17 1155.51 315.22 1251.94 417.13 1251.92 417.25 1155.54 504.25 1155.43 504.46 1421.71"/>
<polygon fill="#F3EFE8" points="1336.11 1422.27 1238.47 1421.82 1343.11 1288.4 1238.4 1154.46 1343.19 1154.23 1439.49 1287.53 1336.11 1422.27"/>
<rect fill="#F3EFE8" x="1133.67" y="1154.4" width="86.33" height="267.58"/>
<polygon fill="#D63C32" points="1461.57 1422.58 1405.37 1352.23 1453.39 1288.29 1408.48 1223.13 1463.97 1155.59 1560.52 1155.18 1454.2 1288.23 1558.78 1422.18 1461.57 1422.58"/>
<path fill="#F3EFE8" d="M785.39,811.09c-138.61,74.24-254.27,160.38-378.31,257.86,15.29-40.89,34.87-77,56.31-113.9,13.16-22.65,26.25-43.65,41.37-64.78l53.59-74.89c58.82-74.04,123.27-142.16,197.13-201.36,33.88-27.16,67.55-50.68,105.73-69.76,12.96,57.31,54.37,97.89,110.5,110.6,83.31,18.37,157.09-24.73,225.19-70.51-94.59-67.85-209.91-117.49-318.5-152.06-87.38-27.82-173.6-50.77-263.28-69.21l-90.46-18.59c150.47-26.47,339.3-40.76,486.79-12.86,47.04,8.9,90.36,23.55,130.84,49.18,69,43.68,119.17,110.75,143.75,188,61.66,34.26,108.32,84.91,108.9,157.4-1.01,55.85-28.44,107.27-76.16,136.99,11.09-29.29,14.31-57.34.05-82.72-12.27-21.83-33.74-32.98-57.05-42.12-50.41-14.24-101.64-19.19-154.74-19.53-119.05-.75-218.12,36.8-321.63,92.24Z"/>
<path fill="#F3EFE8" d="M549.15,684.7l-203.92,172.27c19.09-81.69,54.04-157.54,105.4-222.5,67.15-84.94,136.26-140.69,231.05-193.57l177.11,50.14c-45.08,19.76-84.39,41.62-125.67,65.94-64.13,39.21-122.5,82-183.97,127.73Z"/>
<path fill="#EA993F" d="M1103.45,574.23c-18.65,22.63-47.82,34.43-77.8,30.98-44.3-5.11-75.8-44.23-74.13-88.57,51.97,18,100.72,35.36,151.93,57.6Z"/>
</g>
</svg>
